<svg width="488.64001464843744" height="247.37184759374844" viewBox="0 0 350 177.1859529762496" class="looka-1j8o68f"><defs id="SvgjsDefs1066"></defs><g id="SvgjsG1067" featurekey="symbolFeature-0" transform="matrix(0.505254006398445,0,0,0.505254006398445,40.595696200486174,-78.62691672874922)" fill="#FF6B35"><path xmlns="http://www.w3.org/2000/svg" d="M180.91 186.66a.58.57-6.3 0 0 .56.44h158.75a.8.79 8.4 0 0 .76-.56q3.26-10.36 4.89-15.89.83-2.79 4.53-4.05 12.38-4.2 30.37-10.31 6.64-2.25 9.07 3.04c2.45 5.32-.61 8.97-5.48 10.61q-7.35 2.46-26.06 8.66-.52.17-.68.69L321.69 294.5a4.78 4.77-81.2 0 1-4.57 3.36q-61-.08-122.36.01-4.23.01-5.18-4.37-.68-3.18-22.81-105.65-.19-.88-1.09-.88-6.84-.02-13.93.03-3.73.03-5.54-1.26c-5.02-3.55-3.36-12.2 3.6-12.34q.77-.02 23.96.05 4.55.02 5.47 5.09.75 4.16 1.67 8.12m34.05 47.59a.39.39 0 0 0 .39-.42l-2.45-32.59a.39.39 0 0 0-.39-.36h-27.96a.39.39 0 0 0-.38.47l6.89 32.59a.39.39 0 0 0 .39.31zm37.24.48a.65.65 0 0 0 .65-.65v-32.56a.65.65 0 0 0-.65-.65h-24.55a.65.65 0 0 0-.65.7l2.44 32.56a.65.65 0 0 0 .65.6zm36.59.27a.7.7 0 0 0 .7-.64l2.66-32.72a.7.7 0 0 0-.7-.76h-23.8a.7.7 0 0 0-.7.7v32.72a.7.7 0 0 0 .7.7zm36.61.03a.57.57 0 0 0 .54-.4l10.3-33.01a.57.57 0 0 0-.54-.74h-29.01a.57.57 0 0 0-.57.52l-2.67 33.01a.57.57 0 0 0 .57.62zm-106.81 49.04a.45.45 0 0 0 .45-.48l-2.64-35.14a.45.45 0 0 0-.45-.42H194.7a.45.45 0 0 0-.44.54l7.43 35.14a.45.45 0 0 0 .44.36zm33.8-.01a.48.48 0 0 0 .48-.48v-34.59a.48.48 0 0 0-.48-.48h-21.35a.48.48 0 0 0-.48.52l2.6 34.59a.48.48 0 0 0 .48.44zm32.54.01a.57.57 0 0 0 .57-.52l2.77-34.22a.57.57 0 0 0-.57-.62h-20.19a.57.57 0 0 0-.57.57v34.22a.57.57 0 0 0 .57.57zm25.24-.02a.5.5 0 0 0 .48-.35l10.67-34.21a.5.5 0 0 0-.48-.65h-18.07a.5.5 0 0 0-.5.46l-2.78 34.21a.5.5 0 0 0 .5.54z"></path><rect xmlns="http://www.w3.org/2000/svg" width="167.38" height="13.78" x="-83.69" y="-6.89" rx="6.59" transform="rotate(.2 -91823.318 74980.108)"></rect><path xmlns="http://www.w3.org/2000/svg" d="M228.79 350.05a20.8 20.8 0 0 1-20.8 20.8 20.8 20.8 0 0 1-20.8-20.8 20.8 20.8 0 0 1 20.8-20.8 20.8 20.8 0 0 1 20.8 20.8m-23.03 10.056a10.2 9.98 102.8 0 0 11.992-7.735 10.2 9.98 102.8 0 0-7.472-12.157 10.2 9.98 102.8 0 0-11.992 7.735 10.2 9.98 102.8 0 0 7.472 12.157M336.03 350.75a20.85 20.85 0 0 1-20.85 20.85 20.85 20.85 0 0 1-20.85-20.85 20.85 20.85 0 0 1 20.85-20.85 20.85 20.85 0 0 1 20.85 20.85m-10.76.07a10.09 10.09 0 0 0-10.09-10.09 10.09 10.09 0 0 0-10.09 10.09 10.09 10.09 0 0 0 10.09 10.09 10.09 10.09 0 0 0 10.09-10.09"></path></g><g id="SvgjsG1068" featurekey="nameFeature-0" transform="matrix(1.290323016157052,0,0,1.290323016157052,-4.939485494343305,127.38709653744067)" fill="#FF6B35"><path d="M3.8281 38.5937 l6.4844 0 l0 -19.922 l-6.4844 -9.1406 l0 29.063 z M29.766 1.4059999999999988 l0 25.703 l-18.359 -25.703 l-7.0313 0 l26.406 37.188 l5.3906 0 l0 -37.188 l-6.4063 0 z M46.0938 1.4059999999999988 l27.813 0 l0 5.9375 l-27.813 0 l0 -5.9375 z M46.0938 32.6562 l27.734 0 l0 5.9375 l-27.734 0 l0 -5.9375 z M46.0938 16.875 l25.078 0 l0 5.8594 l-25.078 0 l0 -5.8594 z M96.48400000000001 29.375 l3.5156 -4.6875 l-0.078125 -0.15625 z M116.875 1.4059999999999988 l-7.5 0 l-9.2969 13.359 l-9.2188 -13.359 l-7.7344 0 l13.047 18.281 l-13.516 18.906 l8.3594 0 z M117.344 38.5937 l-10.313 -14.609 l-3.9063 5.2344 l6.5625 9.375 l7.6563 0 z M127.2656 12.5 c0.9375 -2.2916 2.2916 -4.2447 4.0624 -5.8593 c1.6146 -1.6146 3.698 -2.9167 6.2501 -3.9063 s5.2344 -1.4844 8.0469 -1.4844 l8.6719 0 l0 5.9375 l-8.5938 0 c-2.0313 0 -3.8281 0.33852 -5.3906 1.0156 c-1.6666 0.67711 -3.0208 1.5625 -4.0624 2.6563 c-1.0938 1.0416 -1.9791 2.3958 -2.6563 4.0624 c-0.625 1.5104 -0.9375 3.2031 -0.9375 5.0781 s0.3125 3.5677 0.9375 5.0781 c0.625 1.5625 1.5104 2.9166 2.6563 4.0625 c1.0416 1.0416 2.3958 1.901 4.0624 2.5781 c1.6666 0.625 3.4635 0.9375 5.3906 0.9375 l8.5938 0 l0 5.9375 l-8.6719 0 c-2.9166 0 -5.5729 -0.46875 -7.9688 -1.4063 c-2.5 -1.0416 -4.6094 -2.3698 -6.3281 -3.9844 c-1.7709 -1.6666 -3.125 -3.6458 -4.0625 -5.9374 c-0.98961 -2.3959 -1.4844 -4.8438 -1.4844 -7.3438 c0 -2.6563 0.49477 -5.1302 1.4844 -7.4219 z M190.703 38.5937 l7.0313 0 l-13.594 -37.266 l-7.1094 0 l7.8906 22.266 z M161.9531 38.5937 l6.875 0 l8.125 -19.844 l-3.3594 -8.9063 z M235.781 38.5937 l-10.078 -14.063 c1.3541 -0.41664 2.552 -0.91141 3.5937 -1.4843 c1.1459 -0.72914 2.0834 -1.5364 2.8125 -2.4218 c0.83336 -0.98961 1.4323 -2.0573 1.797 -3.2032 c0.46875 -1.25 0.70313 -2.6563 0.70313 -4.2188 c0 -1.8229 -0.3125 -3.4635 -0.9375 -4.9219 c-0.625 -1.4063 -1.5365 -2.6302 -2.7344 -3.6719 c-1.1459 -0.98961 -2.6042 -1.7709 -4.3751 -2.3438 c-1.8229 -0.57289 -3.75 -0.85938 -5.7813 -0.85938 l-16.563 0 l0 5.9375 l16.016 0 c2.4479 0 4.3489 0.52086 5.703 1.5625 s2.0313 2.6041 2.0313 4.6875 c0 1.9271 -0.67711 3.4375 -2.0313 4.5313 c-1.3541 1.1459 -3.2291 1.7188 -5.625 1.7188 l-16.094 0 l0 18.75 l6.4844 0 l0 -12.969 l8.2031 0 l9.1406 12.969 l7.7344 0 l0 0 z M263.281 7.5 l11.797 0 l0 -6.0938 l-30.156 0 l0 6.0938 l18.359 0 z M256.719 13.594000000000001 l6.5625 0 l0 25 l-6.5625 0 l0 -25 z"></path></g></svg>