<svg width="503.88000793457036" height="125.46812946577947" viewBox="0 0 369.89473684210526 92.10526315789474" class="looka-1j8o68f"><defs id="SvgjsDefs1434"></defs><g id="SvgjsG1435" featurekey="5TMTKC-0" transform="matrix(0.9210526315789473,0,0,0.9210526315789473,0,-0.9210526315789473)" fill="#FF6B35"><g xmlns="http://www.w3.org/2000/svg"><path d="M89,12H67v2h22c5.5,0,9,3.5,9,9c0,5-4,9-9,9H11C4.9,32,0,36.9,0,43c0,6.6,4.4,11,11,11h31.1c-2.5,2.2-4.1,5.4-4.1,9v2h-9.8   v30c0,3.3,2.7,6,6,6h32c3.3,0,6-2.7,6-6V65H62v-2c0-6.6-5.4-12-12-12c-1.7,0-3.3,0.4-4.8,1H11c-5.5,0-9-3.5-9-9c0-5,4-9,9-9h78   c6.1,0,11-4.9,11-11C100,16.4,95.6,12,89,12z M50,55c4.4,0,8,3.6,8,8v2H42v-2C42,58.6,45.6,55,50,55z"></path><g><path d="M67,3v9h-4.3c-0.3-0.6-1-1-1.7-1h-1c-0.7,0-1.4,0.4-1.7,1h-4.1V1H65C66.1,1,67,1.9,67,3z"></path><path d="M52.2,1v24H45c-6.6,0-12-5.4-12-12S38.4,1,45,1H52.2z"></path><path d="M67,14v9c0,1.1-0.9,2-2,2H54.2V14h4.1c0.3,0.6,1,1,1.7,1h1c0.7,0,1.4-0.4,1.7-1H67z"></path></g></g></g><g id="SvgjsG1436" featurekey="7UBp9i-0" transform="matrix(2.1073273946103996,0,0,2.1073273946103996,112,18.39818314488774)" fill="#FF6B35"><path d="M10.62 12.84 l0 -6.86 l4.68 0 l0 14.02 l-4.68 0 l-7.5 -8.68 l0 -2.4 l8.22 9.52 l2.4 0 l0 -10.9 l-1.56 0 l0 9.5 l-8.22 -9.5 l-2.4 0 l0 10.9 l1.56 0 l0 -4.72 l1.56 1.8 l0 4.48 l-4.68 0 l0 -14.02 l4.68 0 z M33.400000000000006 5.98 l0 4.68 l-10.62 0 l0 1.56 l7.88 0 l0 1.56 l-9.44 0 l0 -4.68 l10.62 0 l0 -1.56 l-12.18 0 l0 10.9 l12.18 0 l0 -1.56 l-10.62 0 l0 -1.56 l12.18 0 l0 4.68 l-15.3 0 l0 -14.02 l15.3 0 z M45.06 5.98 l5.66 0 l-4.84 7 l4.84 7.02 l-5.66 0 l-2.02 -2.92 l-2.02 2.92 l-5.66 0 l6.74 -9.76 l-1.86 -2.7 l-1.9 0 l1.86 2.7 l-0.94 1.36 l-3.9 -5.62 l5.68 0 l2.96 4.26 l-5.66 8.2 l1.86 0 l2.84 -4.1 l2.84 4.1 l1.88 0 l-3.78 -5.46 l3.76 -5.44 l-1.9 0 l-0.9 1.32 l-0.96 -1.38 z M66.11999999999999 5.98 l0 4.7 l-8.6 0 c-1.18 0.1 -2.08 1.12 -2.08 2.32 s0.9 2.18 2.08 2.32 l5.48 0 l0 1.56 l-5.48 0 c-2.02 -0.16 -3.62 -1.82 -3.62 -3.9 c0 -2 1.54 -3.7 3.54 -3.86 l7.12 0 l0 -1.58 l-7.04 0 l0 0.02 c-2.86 0.16 -5.14 2.52 -5.14 5.44 c0 2.9 2.28 5.28 5.14 5.44 l7.04 0 l0 -3.12 l1.56 0 l0 4.68 l-8.6 0 c-3.74 -0.16 -6.7 -3.24 -6.7 -7 c0 -3.78 2.96 -6.84 6.7 -7 z M77.97999999999999 15.32 l0.9 -1.56 l2.72 4.68 l1.8 0 c-0.4 -0.64 -4.2 -7.14 -4.52 -7.78 l-3.92 6.8 l-1.46 2.54 l-5.4 0 c0.3 -0.5 2.32 -4.02 4.26 -7.4 c1.14 -1.98 2.4 -4.2 3.82 -6.62 l1.8 0 l-3.72 6.44 l-3.46 6.02 l1.8 0 c2.46 -4.34 4 -6.9 6.28 -10.9 c0.14 0.24 7.18 12.44 7.22 12.46 l-5.4 0 z M104.27999999999999 20 l-5.4 0 l-1.82 -3.14 l-3.5 0 l0 3.14 l-4.66 0 l0 -7.8 l11.44 0.02 c1.3 0 2.34 -1.06 2.34 -2.34 c0 -1.3 -1.04 -2.34 -2.34 -2.34 l-9.88 0 l0 1.56 l9.88 0 c0.42 0.02 0.74 0.36 0.74 0.78 s-0.32 0.76 -0.74 0.78 l-0.02 0 l-0.02 0 l-11.4 0 l0 -4.68 l11.44 0 c2.16 0 3.9 1.74 3.9 3.9 c0 2.14 -1.74 3.9 -3.9 3.9 l-9.88 -0.02 l0 4.68 l1.56 0 l0 -3.14 l5.94 0 c0.64 1.16 1.72 2.94 1.82 3.14 l1.8 0 c-0.16 -0.22 -1.08 -1.86 -1.82 -3.14 l1.8 0 c0.66 1.14 1.32 2.32 1.86 3.2 z M107.07999999999998 10.66 l0 -4.68 l15.3 0 l0 4.68 l-3.76 0 l0 -1.56 l2.2 0 l0 -1.56 l-12.18 0 l0 1.56 l5.32 0 l-0.02 9.34 l1.56 0 l0 -9.34 l1.56 0 l0 10.9 l-4.68 0 l0 -9.34 l-5.3 0 z"></path></g></svg>